<?xml version="1.0" standalone="no"?>
<!DOCTYPE svg PUBLIC "-//W3C//DTD SVG 20010904//EN"
 "http://www.w3.org/TR/2001/REC-SVG-20010904/DTD/svg10.dtd">
<svg version="1.0" xmlns="http://www.w3.org/2000/svg"
 width="2000.000000pt" height="2000.000000pt" viewBox="0 0 2000.000000 2000.000000"
 preserveAspectRatio="xMidYMid meet">
<metadata>
Created by potrace 1.11, written by Peter Selinger 2001-2013
</metadata>
<g transform="translate(0.000000,2000.000000) scale(0.100000,-0.100000)"
fill="#000000" stroke="none">
<path d="M6080 16650 c-494 -43 -1028 -192 -1358 -380 -306 -173 -610 -471
-811 -793 -182 -293 -315 -684 -350 -1032 -19 -190 -25 -888 -25 -3194 l-1
-2314 299 6 c165 4 423 7 574 7 l275 0 -6 1093 c-4 600 -4 1367 0 1702 l6 610
1471 -1 c809 0 1571 -4 1693 -9 l222 -8 -6 -871 c-3 -479 -2 -1244 2 -1700 l7
-828 502 6 c275 4 527 9 559 12 l58 6 -4 2547 c-4 2736 -1 2582 -52 2911 -104
662 -351 1182 -717 1509 -433 385 -981 623 -1629 706 -147 19 -558 28 -709 15z
m615 -644 c425 -78 727 -234 939 -486 223 -264 343 -577 402 -1040 14 -111 18
-262 23 -860 3 -399 5 -727 3 -730 -7 -11 -755 -18 -2038 -19 l-1341 -1 -6
377 c-18 1012 -4 1317 79 1693 30 134 58 208 121 323 225 407 648 671 1203
752 129 19 491 14 615 -9z"/>
<path d="M13365 16600 c-650 -52 -1205 -247 -1685 -590 -858 -614 -1417 -1627
-1555 -2817 -35 -302 -37 -747 -5 -1033 90 -817 369 -1547 817 -2141 380 -502
968 -893 1633 -1084 636 -183 1341 -175 1951 21 226 73 478 186 642 288 41 25
77 46 82 46 5 0 5 -609 2 -1352 -9 -1692 8 -2674 49 -2928 34 -210 137 -450
288 -674 127 -189 242 -326 562 -673 67 -72 157 -172 200 -223 l79 -91 6 138
c4 76 7 2200 8 4721 l1 4582 -593 0 -594 0 -6 -849 c-4 -467 -5 -947 -2 -1067
3 -121 7 -371 10 -556 l5 -338 -107 -54 c-595 -297 -1315 -391 -1893 -246
-244 61 -509 179 -690 307 -141 100 -347 311 -450 460 -314 455 -493 952 -574
1593 -64 502 -37 1329 60 1810 86 428 261 848 487 1170 216 306 482 539 782
686 273 133 600 194 1040 194 452 0 858 -72 1349 -240 265 -90 647 -254 843
-362 l73 -40 2 454 c2 249 0 457 -3 461 -3 5 -82 28 -175 53 -762 203 -1291
308 -1794 359 -183 19 -688 27 -845 15z"/>
</g>
</svg>
