<?xml version="1.0" encoding="UTF-8"?>
<svg width="130px" height="134px" viewBox="0 0 130 134" version="1.1" xmlns="http://www.w3.org/2000/svg" xmlns:xlink="http://www.w3.org/1999/xlink">
    <!-- Generator: Sketch 52.6 (67491) - http://www.bohemiancoding.com/sketch -->
    <title>Group</title>
    <desc>Created with Sketch.</desc>
    <g id="Page-1" stroke="none" stroke-width="1" fill="none" fill-rule="evenodd">
        <g id="Artboard-2-Copy-2" transform="translate(-35.000000, -33.000000)" fill="#AAAAAA">
            <g id="Group" transform="translate(35.000000, 33.000000)">
                <path d="M13.6971014,3.49555556 C24.8130435,-1.34 38.8681159,-0.867777778 48.4768116,7.06555556 C54.9768116,12.3733333 56.7289855,21.2888889 56.9362319,29.26 C56.973913,45.3344444 56.8985507,61.4088889 56.9362319,77.4644444 C53.1869565,77.54 49.4188406,77.5966667 45.6695652,77.6533333 C45.5942029,66.3011111 45.5565217,54.9677778 45.6507246,43.6344444 C34.3652174,43.2944444 23.0797101,43.5777778 11.8130435,43.4644444 C11.7376812,54.8166667 11.7753623,66.15 11.8130435,77.5022222 C7.9884058,77.54 4.14492754,77.5777778 0.301449275,77.6155556 C0.527536232,60.1811111 0.113043478,42.7466667 0.452173913,25.3311111 C0.301449275,16.3022222 5.4826087,7.34888889 13.6971014,3.49555556 Z M12.9623188,16.1133333 C10.9086957,23.31 12.0014493,30.9222222 11.7753623,38.3077778 C23.0608696,38.2511111 34.3463768,38.3833333 45.6507246,38.1188889 C45.0855072,28.5422222 47.7985507,15.7544444 38.642029,9.38888889 C30.4275362,4.36444444 16.7492754,6.21555556 12.9623188,16.1133333 Z" id="Combined-Shape"></path>
                <path d="M126.852372,5.22411225 C126.833532,8.28411225 126.833532,11.3441122 126.833532,14.4041122 C117.488604,9.45522336 106.579909,6.18744558 96.0668651,8.98300114 C87.0045463,11.9674456 82.0306332,21.3930011 80.7306332,30.3274456 C79.261068,41.7930011 79.7509231,54.7130011 87.3625173,64.08189 C94.7668651,72.75189 108.294401,72.3741122 117.601648,67.1796678 C117.33788,57.8296678 117.450923,48.4796678 117.526285,39.1107789 C121.482807,39.1296678 125.439329,39.1296678 129.414691,39.09189 C129.358169,70.5985567 129.527735,102.105223 129.339329,133.61189 C124.666865,127.945223 117.865416,122.788557 117.752372,114.760779 C117.111793,101.198557 117.620488,87.6174456 117.488604,74.0363345 C104.488604,82.4607789 85.7422274,79.89189 75.5117927,68.2374456 C60.2886042,50.2174456 63.2277347,17.5963345 84.329184,5.24300114 C97.4422274,-2.33144331 113.174111,1.52189002 126.852372,5.22411225 Z" id="Shape"></path>
            </g>
        </g>
    </g>
</svg>