<?xml version="1.0" encoding="UTF-8"?>
<svg width="561px" height="72px" viewBox="0 0 561 72" version="1.1" xmlns="http://www.w3.org/2000/svg" xmlns:xlink="http://www.w3.org/1999/xlink">
    <!-- Generator: Sketch 52.6 (67491) - http://www.bohemiancoding.com/sketch -->
    <title>Group</title>
    <desc>Created with Sketch.</desc>
    <g id="Page-1" stroke="none" stroke-width="1" fill="none" fill-rule="evenodd">
        <g id="Artboard-1" transform="translate(-13.000000, -14.000000)">
            <g id="1462904467554" transform="translate(13.000000, 14.000000)">
                <g id="Group">
                    <path d="M7.27,2.38 C13.17,-0.18 20.63,0.07 25.73,4.27 C29.18,7.08 30.11,11.8 30.22,16.02 C30.24,24.53 30.2,33.04 30.22,41.54 C28.23,41.58 26.23,41.61 24.24,41.64 C24.2,35.63 24.18,29.63 24.23,23.63 C18.24,23.45 12.25,23.6 6.27,23.54 C6.23,29.55 6.25,35.55 6.27,41.56 C4.24,41.58 2.2,41.6 0.16,41.62 C0.28,32.39 0.06,23.16 0.24,13.94 C0.16,9.16 2.91,4.42 7.27,2.38 L7.27,2.38 Z" id="Shape" fill="#077CC0"></path>
                    <path d="M34.5,26.98 C34.5,18.25 34.43,9.51 34.54,0.77 C36.52,0.77 38.49,0.77 40.47,0.76 C40.53,10.46 40.38,20.17 40.53,29.87 C40.48,33.2 42.38,36.75 45.72,37.74 C49.13,38.77 53.36,38.58 56.03,35.96 C57.85,34.17 58.47,31.54 58.43,29.05 C58.51,19.63 58.38,10.19 58.51,0.77 L64.45,0.77 C64.51,9.84 64.53,18.92 64.44,28 C64.64,33.46 61.13,38.86 55.89,40.57 C49.51,42.72 41.12,41.91 36.95,36.03 C34.95,33.47 34.42,30.16 34.5,26.98 L34.5,26.98 Z" id="Shape" fill="#077CC0"></path>
                    <path d="M67.23,0.76 C77.93,0.7 88.64,0.74 99.34,0.74 C99.43,2.06 99.51,3.38 99.6,4.7 C95.23,5.89 90.73,4.28 86.33,5.25 C86.46,17.36 86.36,29.47 86.38,41.58 C84.39,41.59 82.4,41.61 80.42,41.62 C80.43,29.52 80.28,17.42 80.49,5.33 C76.18,4.42 71.79,5.02 67.45,5.31 C67.36,3.79 67.29,2.27 67.23,0.76 L67.23,0.76 Z" id="Shape" fill="#077CC0"></path>
                    <path d="M111.38,1.6 C117.23,-0.25 124.38,0.66 128.85,5.12 C133.27,9.98 132.19,16.97 132.32,23 C132.66,28.87 131.96,35.89 126.43,39.27 C119.94,42.94 110.24,42.7 105.18,36.71 C101.45,32.35 102.43,26.32 102.3,21.04 C102.44,16.56 101.69,11.74 103.86,7.62 C105.5,4.77 108.15,2.43 111.38,1.6 L111.38,1.6 Z" id="Shape" fill="#077CC0"></path>
                    <path d="M136.57,0.73 C145.21,0.55 153.83,1.16 162.46,1.08 C162.47,1.76 162.5,3.12 162.51,3.8 C156.23,4.12 149.87,3.23 143.65,4.42 C141.87,8.89 142.76,13.77 142.58,18.44 C147.23,18.44 151.88,18.43 156.53,18.48 C156.6,19.04 156.74,20.17 156.81,20.74 C152.09,21.5 147.3,21.14 142.54,21.26 C142.84,26.65 141.02,33.79 146.43,37.28 C151.4,39.57 157.12,38.09 162.4,38.5 L162.4,41.66 C157.58,41.61 152.74,41.92 147.93,41.45 C141.77,40.8 136.58,35.27 136.6,29.02 C136.43,19.59 136.57,10.16 136.57,0.73 L136.57,0.73 Z" id="Shape" fill="#077CC0"></path>
                    <path d="M168.02,4.09 C174.93,-0.97 184.25,0.83 191.71,3.63 C191.53,5.12 191.35,6.6 191.18,8.09 C185.74,5.89 179.25,2.37 173.56,5.63 C170.72,6.97 170.33,11.33 172.66,13.31 C177.47,18.09 185.13,18.36 189.86,23.2 C194.39,28.14 192.97,36.87 187.01,40 C180.4,43.42 172.9,40.86 166.19,39.13 C166.33,37.47 166.5,35.81 166.67,34.15 C171.31,37.84 177.92,39.19 183.56,37.37 C188.04,35.27 186.85,28.98 183.95,26.03 C179.22,22.67 172.79,22.5 168.46,18.48 C164.36,14.9 164.54,8 168.02,4.09 L168.02,4.09 Z" id="Shape" fill="#077CC0"></path>
                    <path d="M202.17,6.16 C206.13,2.46 211.58,0.49 216.97,0.56 C221.63,0.57 226.15,1.87 230.61,3.08 C230.47,4.67 230.33,6.26 230.18,7.86 C224.54,4.86 217.97,2.93 211.63,4.72 C199.33,10.19 200.1,30.84 212.18,36.15 C217.89,38.92 224.67,37.67 229.82,34.25 C229.78,35.63 229.74,37.01 229.7,38.39 C223.69,41.37 216.61,42.72 210.12,40.5 C202.33,38.46 196.61,30.97 196.42,22.97 C195.75,16.86 197.86,10.55 202.17,6.16 L202.17,6.16 Z" id="Shape" fill="#077CC0"></path>
                    <path d="M233.79,17.03 C234.05,11.58 233.13,6.02 234.4,0.66 C236.16,0.69 237.92,0.71 239.69,0.71 C240.49,10.99 239.12,21.44 240.25,31.72 C241.17,38.99 252.01,40.61 256.1,35.16 C258.12,32.94 257.7,29.76 257.8,27.01 C257.69,18.49 257.95,9.98 257.66,1.47 C259.6,0.7 261.69,0.69 263.74,0.68 C263.8,10.13 263.87,19.58 263.75,29.02 C263.8,34.39 259.93,39.35 254.79,40.79 C248.61,42.57 240.68,41.8 236.58,36.29 C232.65,30.67 234.03,23.45 233.79,17.03 L233.79,17.03 Z" id="Shape" fill="#077CC0"></path>
                    <path d="M268.2,31.5627848 L268.2,29.6189286 L269.31,29.5 L268.46,28.4 C268.11,19.17 268.33,9.93 268.37,0.69 C276.75,0.84 285.14,0.59 293.52,0.79 C294.55,1.41 294.18,2.78 294.47,3.76 C288.14,4.03 281.77,3.46 275.47,4.32 C273.58,8.8 274.54,13.76 274.35,18.48 C279.03,18.43 283.72,18.42 288.41,18.47 C288.39,19.16 288.34,20.53 288.32,21.22 C283.64,21.2 278.97,21.21 274.3,21.23 C274.69,26.6 272.7,33.69 278.07,37.23 C283.02,39.66 288.82,38 294.13,38.55 C294.19,39.59 294.26,40.62 294.33,41.66 C289.26,41.58 284.16,41.98 279.11,41.38 C273.9,40.59 269.42,36.43 268.73,31.12 L268.2,31.5627848 Z" id="Combined-Shape" fill="#077CC0"></path>
                    <path d="M297.73,0.74 C299.71,0.74 301.68,0.73 303.66,0.71 C303.84,10.5 303.55,20.29 303.78,30.08 C303.8,33.85 306.16,37.92 310.14,38.49 C314.57,38.92 319.04,38.59 323.48,38.67 C323.53,39.66 323.58,40.65 323.64,41.64 C318.37,41.58 313.06,42.05 307.83,41.25 C302.18,40.03 297.96,34.74 297.77,29 C297.55,19.59 297.7,10.16 297.73,0.74 L297.73,0.74 Z" id="Shape" fill="#077CC0"></path>
                    <path d="M333.22,3.18 C339.18,-0.34 347.38,-0.15 352.93,4.12 C356.14,6.67 357.44,10.95 357.44,14.93 C357.48,23.81 357.44,32.7 357.48,41.59 C355.45,41.6 353.42,41.61 351.4,41.61 C351.44,35.59 351.41,29.57 351.4,23.55 C345.41,23.52 339.43,23.55 333.46,23.53 C333.44,29.55 333.5,35.57 333.45,41.59 L327.39,41.59 C327.49,32.72 327.39,23.84 327.44,14.96 C327.43,10.46 329.12,5.52 333.22,3.18 L333.22,3.18 Z" id="Shape" fill="#077CC0"></path>
                    <path d="M466.8,1.5 C468.97,1.52 471.15,1.52 473.33,1.53 C473.3,15.21 473.31,28.88 473.33,42.56 C471.14,42.56 468.96,42.55 466.79,42.55 C466.79,28.87 466.78,15.19 466.8,1.5 L466.8,1.5 Z" id="Shape" fill="#1F1A18"></path>
                    <path d="M486.62,4.84 C494.9,-0.54 505.46,1.12 514.35,3.92 C514.05,5.52 513.77,7.13 513.5,8.74 C508.78,6.08 503.41,4.42 497.97,4.71 C492.8,5.04 488.03,8.49 486.17,13.33 C483.31,20.53 484.71,30 491.08,34.91 C497.55,39.9 506.79,39.26 513.46,35.01 C513.41,36.42 513.35,37.83 513.29,39.24 C502.86,44.71 487.69,43.6 480.85,33.09 C475.09,24.1 477.42,10.63 486.62,4.84 L486.62,4.84 Z" id="Shape" fill="#1F1A18"></path>
                    <path d="M393.12,3.73 C393.11,5.35 393.11,6.97 393.11,8.59 C388.15,5.97 382.36,4.24 376.78,5.72 C371.97,7.3 369.33,12.29 368.64,17.02 C367.86,23.09 368.12,29.93 372.16,34.89 C376.09,39.48 383.27,39.28 388.21,36.53 C388.07,31.58 388.13,26.63 388.17,21.67 C390.27,21.68 392.37,21.68 394.48,21.66 C394.45,38.34 394.54,55.02 394.44,71.7 C391.96,68.7 388.35,65.97 388.29,61.72 C387.95,54.54 388.22,47.35 388.15,40.16 C381.25,44.62 371.3,43.26 365.87,37.09 C357.79,27.55 359.35,10.28 370.55,3.74 C377.51,-0.27 385.86,1.77 393.12,3.73 Z" id="Shape" fill="#1F1A18"></path>
                    <path d="M399.31,13.88 C399.53,8.38 403.78,3.47 409.12,2.25 C415.4,0.78 423.05,1.2 427.69,6.23 C430.68,9.35 431.04,13.89 431.08,17.99 C431.09,26.15 431.06,34.32 431.1,42.48 C428.9,42.51 426.69,42.52 424.49,42.54 C424.54,36.49 424.53,30.44 424.52,24.38 C418.2,24.38 411.88,24.36 405.56,24.4 C405.61,30.43 405.59,36.47 405.66,42.51 C403.48,42.5 401.31,42.5 399.14,42.5 C399.33,32.96 399.01,23.41 399.31,13.88 L399.31,13.88 Z" id="Shape" fill="#1F1A18"></path>
                    <path d="M435.56,28.98 C435.47,19.83 435.58,10.67 435.52,1.51 C437.7,1.52 439.89,1.52 442.08,1.54 C442.2,11.71 441.54,21.9 442.15,32.06 C442.33,35.67 445.29,38.86 448.86,39.35 C453.51,39.88 458.21,39.5 462.88,39.59 C462.88,40.34 462.89,41.85 462.89,42.6 C456.46,42.33 449.75,43.54 443.57,41.25 C438.64,39.36 435.49,34.19 435.56,28.98 L435.56,28.98 Z" id="Shape" fill="#1F1A18"></path>
                    <path d="M517.59,1.5 C519.77,1.52 521.96,1.52 524.15,1.52 C524.13,15.19 524.1,28.87 524.15,42.54 C521.96,42.55 519.77,42.55 517.58,42.56 C517.6,28.88 517.59,15.19 517.59,1.5 L517.59,1.5 Z" id="Shape" fill="#1F1A18"></path>
                    <path d="M537.4,2.65 C543.48,0.78 550.9,0.88 556.03,5.08 C559.29,7.66 560.53,11.99 560.53,16 C560.53,24.83 560.55,33.67 560.59,42.5 C558.43,42.51 556.27,42.52 554.12,42.52 C554.15,36.49 554.12,30.45 554.15,24.41 C547.83,24.35 541.51,24.4 535.19,24.38 C535.22,30.42 535.21,36.46 535.24,42.5 C533.02,42.51 530.81,42.52 528.61,42.53 C528.71,33.38 528.59,24.22 528.67,15.07 C528.68,9.65 532.13,4.3 537.4,2.65 L537.4,2.65 Z" id="Shape" fill="#1F1A18"></path>
                    <path d="M6.88,9.06 C8.89,3.82 16.15,2.84 20.51,5.5 C25.37,8.87 23.93,15.64 24.23,20.71 C18.23,20.85 12.24,20.78 6.25,20.81 C6.37,16.9 5.79,12.87 6.88,9.06 L6.88,9.06 Z" id="Shape" fill="#FEFFFE"></path>
                    <path d="M113.56,4.62 C117.57,3.4 122.82,3.97 124.99,8.05 C127.05,12.39 126.07,17.35 126.29,21.99 C126.08,26.23 127.09,30.93 124.7,34.74 C120.9,40.69 109.5,39.12 108.51,31.69 C108.04,25.44 108.36,19.15 108.32,12.89 C108.14,9.38 110.09,5.74 113.56,4.62 L113.56,4.62 Z" id="Shape" fill="#FEFFFE"></path>
                    <path d="M335.74,6.61 C339.72,2.73 347.85,3.14 350.39,8.49 C352.08,12.35 351.2,16.7 351.42,20.78 C345.43,20.83 339.45,20.78 333.47,20.76 C333.7,16.05 332.35,10.51 335.74,6.61 L335.74,6.61 Z" id="Shape" fill="#FEFFFE"></path>
                    <path d="M537.5,7.42 C540.88,4.24 546.51,4.13 550.42,6.34 C555.41,9.73 553.88,16.51 554.14,21.64 C547.82,21.71 541.51,21.68 535.2,21.68 C535.54,16.95 533.91,11.27 537.5,7.42 L537.5,7.42 Z" id="Shape" fill="#FEFFFE"></path>
                    <path d="M406.54,9.51 C409.38,3.86 418.04,3.38 422.33,7.55 C425.71,11.45 424.18,16.99 424.52,21.68 C418.21,21.68 411.89,21.69 405.58,21.66 C405.78,17.63 404.88,13.34 406.54,9.51 L406.54,9.51 Z" id="Shape" fill="#FEFFFE"></path>
                    <path d="M268.936768,27.7983398 C268.936768,30.0949707 269.449768,31.9127197 269.449768,31.9127197" id="Path-25" stroke="#077CC0"></path>
                    <path d="M267.955811,28.697937 C268.201355,31.9351196 268.684448,33.2893066 268.684448,33.2893066" id="Path-26" stroke="#FFFFFF"></path>
                </g>
            </g>
        </g>
    </g>
</svg>